<?xml version="1.0" encoding="utf-8"?>
<!-- Generator: Adobe Illustrator 26.2.1, SVG Export Plug-In . SVG Version: 6.00 Build 0)  -->
<svg version="1.1" id="Слой_1" xmlns="http://www.w3.org/2000/svg" xmlns:xlink="http://www.w3.org/1999/xlink" x="0px" y="0px"
	 viewBox="0 0 19.8 19.8" style="enable-background:new 0 0 19.8 19.8;" xml:space="preserve">
<style type="text/css">
	.st0{fill:#9DCAEE;}
</style>
<g>
	<path class="st0" d="M13.5,6.5c0.4,0,0.7,0.1,1,0.4c0.3,0.3,0.4,0.6,0.4,1v5c0,0.4-0.1,0.7-0.4,1s-0.6,0.4-1,0.4H5.6
		c-0.4,0-0.7-0.1-1-0.4c-0.3-0.3-0.4-0.6-0.4-1v-5c0-0.4,0.1-0.7,0.4-1c0.3-0.3,0.6-0.4,1-0.4h1.2l0.3-0.8c0.1-0.2,0.2-0.3,0.4-0.5
		C7.7,5.1,7.9,5,8.1,5H11c0.2,0,0.4,0.1,0.6,0.2c0.2,0.1,0.3,0.3,0.4,0.5l0.3,0.8H13.5z M9.6,12.9c0.7,0,1.3-0.2,1.8-0.7
		c0.5-0.5,0.7-1.1,0.7-1.8c0-0.7-0.2-1.3-0.7-1.8s-1.1-0.7-1.8-0.7c-0.7,0-1.3,0.3-1.8,0.7C7.3,9.1,7,9.7,7.1,10.4
		c0,0.7,0.3,1.3,0.7,1.8S8.8,12.9,9.6,12.9z M9.6,8.8c0.4,0,0.8,0.2,1.1,0.5c0.3,0.3,0.5,0.7,0.5,1.1c0,0.4-0.2,0.8-0.5,1.1
		C10.4,11.8,10,12,9.6,12c-0.4,0-0.8-0.1-1.1-0.5c-0.3-0.3-0.5-0.7-0.5-1.1C8,10,8.1,9.6,8.4,9.3C8.7,8.9,9.1,8.8,9.6,8.8z"/>
</g>
</svg>
